<svg xmlns="http://www.w3.org/2000/svg" viewBox="0 0 560 400" width="560" height="400" font-family="ui-sans-serif,-apple-system,Segoe UI,Roboto,sans-serif" role="img" aria-label="Dose-response chart for agreeableness.flexibility">
  <rect x="0" y="0" width="560" height="400" rx="12" fill="#ffffff"/>
  <text x="52" y="26" font-size="15" font-weight="700" fill="#1a1d24">Turn one dial, measure the output: agreeableness.flexibility</text>
  <text x="52" y="43" font-size="11" fill="#6b7280">google/gemini-3.7-flash · PI-50 · 3 runs</text>
  <line x1="52" y1="348.0" x2="536" y2="348.0" stroke="#eceae3" stroke-width="1"/><text x="44" y="351.0" text-anchor="end" font-size="10" fill="#9aa0ac">0</text><line x1="52" y1="274.5" x2="536" y2="274.5" stroke="#eceae3" stroke-width="1"/><text x="44" y="277.5" text-anchor="end" font-size="10" fill="#9aa0ac">25</text><line x1="52" y1="201.0" x2="536" y2="201.0" stroke="#eceae3" stroke-width="1"/><text x="44" y="204.0" text-anchor="end" font-size="10" fill="#9aa0ac">50</text><line x1="52" y1="127.5" x2="536" y2="127.5" stroke="#eceae3" stroke-width="1"/><text x="44" y="130.5" text-anchor="end" font-size="10" fill="#9aa0ac">75</text><line x1="52" y1="54.0" x2="536" y2="54.0" stroke="#eceae3" stroke-width="1"/><text x="44" y="57.0" text-anchor="end" font-size="10" fill="#9aa0ac">100</text>
  <text x="52.0" y="366" text-anchor="middle" font-size="10" fill="#9aa0ac">0</text><text x="173.0" y="366" text-anchor="middle" font-size="10" fill="#9aa0ac">25</text><text x="294.0" y="366" text-anchor="middle" font-size="10" fill="#9aa0ac">50</text><text x="415.0" y="366" text-anchor="middle" font-size="10" fill="#9aa0ac">75</text><text x="536.0" y="366" text-anchor="middle" font-size="10" fill="#9aa0ac">100</text>
  <text x="294.0" y="392" text-anchor="middle" font-size="11" fill="#6b7280">declared facet value (what we asked for)</text>
  <text transform="translate(14,201.0) rotate(-90)" text-anchor="middle" font-size="11" fill="#6b7280">measured (what the model did)</text>
  <line x1="52" y1="348" x2="536" y2="54" stroke="#c9c6bd" stroke-width="1.5" stroke-dasharray="5 4"/>
  <text x="532" y="68" text-anchor="end" font-size="9.5" fill="#b0ada3">ideal: measured = declared</text>
  <path d="M124.6,348.0 L197.2,348.0 L269.8,348.0 L342.4,348.0 L415.0,265.7 L487.6,256.9" fill="none" stroke="#c2410c" stroke-width="1.5" stroke-opacity="0.45" stroke-dasharray="2 3"/>
  <path d="M124.6,348.0 L197.2,348.0 L269.8,348.0 L342.4,348.0 L415.0,104.0 L487.6,77.5" fill="none" stroke="#e08a12" stroke-width="2.5"/>
  <circle cx="124.6" cy="348.0" r="4.5" fill="#e08a12" stroke="#fff" stroke-width="1.5"/><circle cx="197.2" cy="348.0" r="4.5" fill="#e08a12" stroke="#fff" stroke-width="1.5"/><circle cx="269.8" cy="348.0" r="4.5" fill="#e08a12" stroke="#fff" stroke-width="1.5"/><circle cx="342.4" cy="348.0" r="4.5" fill="#e08a12" stroke="#fff" stroke-width="1.5"/><circle cx="415.0" cy="104.0" r="4.5" fill="#e08a12" stroke="#fff" stroke-width="1.5"/><circle cx="487.6" cy="77.5" r="4.5" fill="#e08a12" stroke="#fff" stroke-width="1.5"/>
  <text x="536" y="56" text-anchor="end" font-size="10.5" fill="#1a1d24" font-weight="600">Spearman 0.85 · slope 1.35</text>
  <text x="536" y="72" text-anchor="end" font-size="9.5" fill="#c2410c" fill-opacity="0.8">faint dashes: sycophancy index</text>
</svg>
